<svg width="24" height="24" viewBox="0 0 24 24" fill="none" xmlns="http://www.w3.org/2000/svg">
<path d="M21 11.4997C21.0034 12.8195 20.6951 14.1215 20.1 15.2997C19.3944 16.7114 18.3098 17.8988 16.9674 18.7289C15.6251 19.5591 14.0782 19.9991 12.5 19.9997C11.1801 20.0031 9.87812 19.6947 8.7 19.0997L3 20.9997L4.9 15.2997C4.30493 14.1215 3.99656 12.8195 4 11.4997C4.00061 9.92142 4.44061 8.37451 5.27072 7.03221C6.10083 5.68991 7.28825 4.60523 8.7 3.89966C9.87812 3.30459 11.1801 2.99622 12.5 2.99966H13C15.0843 3.11465 17.053 3.99442 18.5291 5.47052C20.0052 6.94662 20.885 8.91531 21 10.9997V11.4997Z" stroke="#9EA0A5" stroke-width="2" stroke-linecap="round" stroke-linejoin="round"/>
</svg>
